<mxfile host="65bd71144e">
    <diagram name="Página-1" id="OqUmhLXzAGNoVV07hsoO">
        <mxGraphModel dx="1703" dy="1945" grid="1" gridSize="10" guides="1" tooltips="1" connect="1" arrows="1" fold="1" page="1" pageScale="1" pageWidth="827" pageHeight="1169" math="0" shadow="0">
            <root>
                <mxCell id="0"/>
                <mxCell id="1" parent="0"/>
                <mxCell id="7VLa77z8znclignIy_Kp-3" value="" style="swimlane;startSize=0;swimlaneLine=1;opacity=0;" parent="1" vertex="1">
                    <mxGeometry x="-760" y="-10" width="680" height="1050" as="geometry"/>
                </mxCell>
                <mxCell id="7VLa77z8znclignIy_Kp-6" value="Apresentar vagas na região desejada" style="ellipse;whiteSpace=wrap;html=1;" parent="7VLa77z8znclignIy_Kp-3" vertex="1">
                    <mxGeometry x="268.5" y="400" width="140" height="80" as="geometry"/>
                </mxCell>
                <mxCell id="7VLa77z8znclignIy_Kp-8" value="Visualizar o trajeto à pé da vaga até o ponto de interesse (mineirão)&quot;" style="ellipse;whiteSpace=wrap;html=1;" parent="7VLa77z8znclignIy_Kp-3" vertex="1">
                    <mxGeometry x="261" y="515" width="160" height="92.5" as="geometry"/>
                </mxCell>
                <mxCell id="7VLa77z8znclignIy_Kp-7" value="Apresentar imagem e descrição da vaga" style="ellipse;whiteSpace=wrap;html=1;" parent="7VLa77z8znclignIy_Kp-3" vertex="1">
                    <mxGeometry x="460" y="220" width="120" height="80" as="geometry"/>
                </mxCell>
                <mxCell id="7VLa77z8znclignIy_Kp-11" value="Cadastrar Usuário&lt;br&gt;Locatário/Locador" style="ellipse;whiteSpace=wrap;html=1;" parent="7VLa77z8znclignIy_Kp-3" vertex="1">
                    <mxGeometry x="260" width="160" height="80" as="geometry"/>
                </mxCell>
                <mxCell id="7VLa77z8znclignIy_Kp-13" value="Contactar mantenedor do sistema" style="ellipse;whiteSpace=wrap;html=1;" parent="7VLa77z8znclignIy_Kp-3" vertex="1">
                    <mxGeometry x="259.5" y="920" width="163" height="80" as="geometry"/>
                </mxCell>
                <mxCell id="7VLa77z8znclignIy_Kp-16" value="Efetuar Pagamento" style="ellipse;whiteSpace=wrap;html=1;" parent="7VLa77z8znclignIy_Kp-3" vertex="1">
                    <mxGeometry x="130" y="690" width="160" height="80" as="geometry"/>
                </mxCell>
                <mxCell id="7VLa77z8znclignIy_Kp-19" value="Efetuar Login" style="ellipse;whiteSpace=wrap;html=1;" parent="7VLa77z8znclignIy_Kp-3" vertex="1">
                    <mxGeometry x="262.5" y="86" width="160" height="84" as="geometry"/>
                </mxCell>
                <mxCell id="7VLa77z8znclignIy_Kp-18" value="Compartilhar vagas disponíveis" style="ellipse;whiteSpace=wrap;html=1;" parent="7VLa77z8znclignIy_Kp-3" vertex="1">
                    <mxGeometry x="460" y="330" width="120" height="80" as="geometry"/>
                </mxCell>
                <mxCell id="7VLa77z8znclignIy_Kp-17" value="Cadastrar Vagas" style="ellipse;whiteSpace=wrap;html=1;" parent="7VLa77z8znclignIy_Kp-3" vertex="1">
                    <mxGeometry x="490" y="526" width="120" height="86.5" as="geometry"/>
                </mxCell>
                <mxCell id="7VLa77z8znclignIy_Kp-15" value="Pagar&amp;nbsp; via PIX" style="ellipse;whiteSpace=wrap;html=1;" parent="7VLa77z8znclignIy_Kp-3" vertex="1">
                    <mxGeometry x="408.5" y="690" width="156" height="80" as="geometry"/>
                </mxCell>
                <mxCell id="7VLa77z8znclignIy_Kp-14" value="Efetuar Comentários" style="ellipse;whiteSpace=wrap;html=1;" parent="7VLa77z8znclignIy_Kp-3" vertex="1">
                    <mxGeometry x="261" y="800" width="160" height="80" as="geometry"/>
                </mxCell>
                <mxCell id="7VLa77z8znclignIy_Kp-12" value="Pesquisar vagas" style="ellipse;whiteSpace=wrap;html=1;" parent="7VLa77z8znclignIy_Kp-3" vertex="1">
                    <mxGeometry x="224.25" y="300" width="131.5" height="80" as="geometry"/>
                </mxCell>
                <mxCell id="7VLa77z8znclignIy_Kp-46" value="&amp;lt;&amp;lt;Include&amp;gt;&amp;gt;" style="endArrow=open;endSize=12;dashed=1;html=1;rounded=0;exitX=1;exitY=0.5;exitDx=0;exitDy=0;entryX=0;entryY=0.5;entryDx=0;entryDy=0;" parent="7VLa77z8znclignIy_Kp-3" source="7VLa77z8znclignIy_Kp-16" target="7VLa77z8znclignIy_Kp-15" edge="1">
                    <mxGeometry width="160" relative="1" as="geometry">
                        <mxPoint x="180" y="560" as="sourcePoint"/>
                        <mxPoint x="340" y="560" as="targetPoint"/>
                    </mxGeometry>
                </mxCell>
                <mxCell id="7VLa77z8znclignIy_Kp-47" value="&amp;lt;&amp;lt;Include&amp;gt;&amp;gt;" style="endArrow=open;endSize=12;dashed=1;html=1;rounded=0;exitX=0.986;exitY=0.329;exitDx=0;exitDy=0;exitPerimeter=0;" parent="7VLa77z8znclignIy_Kp-3" source="7VLa77z8znclignIy_Kp-12" target="7VLa77z8znclignIy_Kp-7" edge="1">
                    <mxGeometry width="160" relative="1" as="geometry">
                        <mxPoint x="170" y="160" as="sourcePoint"/>
                        <mxPoint x="376" y="165" as="targetPoint"/>
                    </mxGeometry>
                </mxCell>
                <mxCell id="7VLa77z8znclignIy_Kp-50" value="&amp;lt;&amp;lt;extend&amp;gt;&amp;gt;" style="endArrow=open;endSize=12;dashed=1;html=1;rounded=0;exitX=0;exitY=0.5;exitDx=0;exitDy=0;entryX=0.936;entryY=0.736;entryDx=0;entryDy=0;entryPerimeter=0;" parent="7VLa77z8znclignIy_Kp-3" source="7VLa77z8znclignIy_Kp-18" target="7VLa77z8znclignIy_Kp-12" edge="1">
                    <mxGeometry width="160" relative="1" as="geometry">
                        <mxPoint x="170" y="260" as="sourcePoint"/>
                        <mxPoint x="240" y="320" as="targetPoint"/>
                    </mxGeometry>
                </mxCell>
                <mxCell id="8" value="Esqueci a Senha" style="ellipse;whiteSpace=wrap;html=1;" vertex="1" parent="7VLa77z8znclignIy_Kp-3">
                    <mxGeometry x="240" y="209" width="100" height="70" as="geometry"/>
                </mxCell>
                <mxCell id="9" value="Login Efetuado com Sucesso" style="ellipse;whiteSpace=wrap;html=1;" vertex="1" parent="7VLa77z8znclignIy_Kp-3">
                    <mxGeometry x="100" y="210" width="97.5" height="69" as="geometry"/>
                </mxCell>
                <mxCell id="10" value="&amp;lt;&amp;lt;Include&amp;gt;&amp;gt;" style="endArrow=open;endSize=12;dashed=1;html=1;rounded=0;entryX=1;entryY=0;entryDx=0;entryDy=0;exitX=0;exitY=1;exitDx=0;exitDy=0;" edge="1" parent="7VLa77z8znclignIy_Kp-3" source="7VLa77z8znclignIy_Kp-19" target="9">
                    <mxGeometry x="0.0107" y="2" width="160" relative="1" as="geometry">
                        <mxPoint x="230" y="170" as="sourcePoint"/>
                        <mxPoint x="220" y="200" as="targetPoint"/>
                        <mxPoint as="offset"/>
                    </mxGeometry>
                </mxCell>
                <mxCell id="11" value="&amp;lt;&amp;lt;extend&amp;gt;&amp;gt;" style="endArrow=open;endSize=12;dashed=1;html=1;rounded=0;exitX=1;exitY=0;exitDx=0;exitDy=0;entryX=0.5;entryY=1;entryDx=0;entryDy=0;" edge="1" parent="7VLa77z8znclignIy_Kp-3" source="8" target="7VLa77z8znclignIy_Kp-19">
                    <mxGeometry width="160" relative="1" as="geometry">
                        <mxPoint x="400" y="175.12" as="sourcePoint"/>
                        <mxPoint x="312.31999999999994" y="204.0000000000001" as="targetPoint"/>
                    </mxGeometry>
                </mxCell>
                <mxCell id="4" value="" style="edgeStyle=none;html=1;" edge="1" parent="1" source="7VLa77z8znclignIy_Kp-4">
                    <mxGeometry relative="1" as="geometry">
                        <mxPoint x="-788.5" y="660" as="targetPoint"/>
                    </mxGeometry>
                </mxCell>
                <mxCell id="7VLa77z8znclignIy_Kp-4" value="Usuário &lt;br&gt;Locador" style="shape=umlActor;verticalLabelPosition=bottom;verticalAlign=top;html=1;outlineConnect=0;fillColor=#dae8fc;strokeColor=#6c8ebf;fontStyle=1;gradientColor=#7ea6e0;" parent="1" vertex="1">
                    <mxGeometry x="-827" y="470" width="77" height="110" as="geometry"/>
                </mxCell>
                <mxCell id="7VLa77z8znclignIy_Kp-10" value="&lt;b&gt;Sistema Global de&amp;nbsp;&lt;br&gt;Posicionamento&lt;/b&gt;" style="shape=umlActor;verticalLabelPosition=bottom;verticalAlign=top;html=1;fillColor=#f8cecc;strokeColor=#b85450;gradientColor=#ea6b66;" parent="1" vertex="1">
                    <mxGeometry x="-100" y="10" width="77" height="100" as="geometry"/>
                </mxCell>
                <mxCell id="7VLa77z8znclignIy_Kp-27" value="" style="endArrow=open;endFill=1;endSize=12;html=1;rounded=0;exitX=0.5;exitY=0.5;exitDx=0;exitDy=0;exitPerimeter=0;entryX=0;entryY=0.5;entryDx=0;entryDy=0;" parent="1" source="7VLa77z8znclignIy_Kp-4" target="7VLa77z8znclignIy_Kp-11" edge="1">
                    <mxGeometry width="160" relative="1" as="geometry">
                        <mxPoint x="70" y="462.14" as="sourcePoint"/>
                        <mxPoint x="245.00759230292556" y="200.00364950712617" as="targetPoint"/>
                        <Array as="points">
                            <mxPoint x="-720" y="120"/>
                        </Array>
                    </mxGeometry>
                </mxCell>
                <mxCell id="7VLa77z8znclignIy_Kp-29" value="" style="endArrow=open;endFill=1;endSize=12;html=1;rounded=0;entryX=0;entryY=0.5;entryDx=0;entryDy=0;exitX=0.5;exitY=0.5;exitDx=0;exitDy=0;exitPerimeter=0;" parent="1" source="7VLa77z8znclignIy_Kp-4" target="7VLa77z8znclignIy_Kp-19" edge="1">
                    <mxGeometry width="160" relative="1" as="geometry">
                        <mxPoint x="300" y="330" as="sourcePoint"/>
                        <mxPoint x="300" y="275" as="targetPoint"/>
                        <Array as="points">
                            <mxPoint x="-670" y="200"/>
                        </Array>
                    </mxGeometry>
                </mxCell>
                <mxCell id="7VLa77z8znclignIy_Kp-30" value="" style="endArrow=open;endFill=1;endSize=12;html=1;rounded=0;entryX=0;entryY=0.5;entryDx=0;entryDy=0;exitX=0.5;exitY=0.5;exitDx=0;exitDy=0;exitPerimeter=0;" parent="1" source="7VLa77z8znclignIy_Kp-4" target="7VLa77z8znclignIy_Kp-12" edge="1">
                    <mxGeometry width="160" relative="1" as="geometry">
                        <mxPoint x="300" y="330" as="sourcePoint"/>
                        <mxPoint x="256" y="423" as="targetPoint"/>
                    </mxGeometry>
                </mxCell>
                <mxCell id="7VLa77z8znclignIy_Kp-31" value="" style="endArrow=open;endFill=1;endSize=12;html=1;rounded=0;exitX=0.5;exitY=0.5;exitDx=0;exitDy=0;exitPerimeter=0;entryX=0.056;entryY=0.27;entryDx=0;entryDy=0;entryPerimeter=0;" parent="1" source="7VLa77z8znclignIy_Kp-4" target="7VLa77z8znclignIy_Kp-8" edge="1">
                    <mxGeometry width="160" relative="1" as="geometry">
                        <mxPoint x="-70" y="470" as="sourcePoint"/>
                        <mxPoint x="460" y="630" as="targetPoint"/>
                        <Array as="points"/>
                    </mxGeometry>
                </mxCell>
                <mxCell id="7VLa77z8znclignIy_Kp-33" value="" style="endArrow=open;endFill=1;endSize=12;html=1;rounded=0;exitX=0.5;exitY=0.5;exitDx=0;exitDy=0;exitPerimeter=0;entryX=0;entryY=0.5;entryDx=0;entryDy=0;" parent="1" source="7VLa77z8znclignIy_Kp-4" target="7VLa77z8znclignIy_Kp-16" edge="1">
                    <mxGeometry width="160" relative="1" as="geometry">
                        <mxPoint x="300" y="630" as="sourcePoint"/>
                        <mxPoint x="460" y="630" as="targetPoint"/>
                    </mxGeometry>
                </mxCell>
                <mxCell id="7VLa77z8znclignIy_Kp-35" value="" style="endArrow=open;endFill=1;endSize=12;html=1;rounded=0;entryX=0.958;entryY=0.281;entryDx=0;entryDy=0;exitX=0.5;exitY=0.334;exitDx=0;exitDy=0;exitPerimeter=0;entryPerimeter=0;" parent="1" source="7VLa77z8znclignIy_Kp-10" target="7VLa77z8znclignIy_Kp-8" edge="1">
                    <mxGeometry width="160" relative="1" as="geometry">
                        <mxPoint x="300" y="630" as="sourcePoint"/>
                        <mxPoint x="460" y="630" as="targetPoint"/>
                        <Array as="points">
                            <mxPoint x="-60" y="320"/>
                        </Array>
                    </mxGeometry>
                </mxCell>
                <mxCell id="7VLa77z8znclignIy_Kp-36" value="" style="endArrow=open;endFill=1;html=1;rounded=0;entryX=0;entryY=0.5;entryDx=0;entryDy=0;exitX=0.5;exitY=0.5;exitDx=0;exitDy=0;exitPerimeter=0;" parent="1" source="7VLa77z8znclignIy_Kp-4" target="7VLa77z8znclignIy_Kp-14" edge="1">
                    <mxGeometry width="160" relative="1" as="geometry">
                        <mxPoint x="-74" y="470" as="sourcePoint"/>
                        <mxPoint x="160" y="530" as="targetPoint"/>
                        <Array as="points">
                            <mxPoint x="-640" y="800"/>
                        </Array>
                    </mxGeometry>
                </mxCell>
                <mxCell id="7VLa77z8znclignIy_Kp-37" value="" style="endArrow=open;endFill=1;endSize=12;html=1;rounded=0;entryX=0;entryY=0.5;entryDx=0;entryDy=0;exitX=0.5;exitY=0.5;exitDx=0;exitDy=0;exitPerimeter=0;" parent="1" source="7VLa77z8znclignIy_Kp-4" target="7VLa77z8znclignIy_Kp-13" edge="1">
                    <mxGeometry width="160" relative="1" as="geometry">
                        <mxPoint x="300" y="420" as="sourcePoint"/>
                        <mxPoint x="460" y="420" as="targetPoint"/>
                        <Array as="points">
                            <mxPoint x="-720" y="920"/>
                        </Array>
                    </mxGeometry>
                </mxCell>
                <mxCell id="7VLa77z8znclignIy_Kp-40" value="" style="endArrow=open;endFill=1;endSize=12;html=1;rounded=0;entryX=0;entryY=0.5;entryDx=0;entryDy=0;exitX=0.5;exitY=0.5;exitDx=0;exitDy=0;exitPerimeter=0;" parent="1" source="7VLa77z8znclignIy_Kp-4" target="7VLa77z8znclignIy_Kp-6" edge="1">
                    <mxGeometry width="160" relative="1" as="geometry">
                        <mxPoint x="-70" y="470" as="sourcePoint"/>
                        <mxPoint x="446" y="700" as="targetPoint"/>
                        <Array as="points"/>
                    </mxGeometry>
                </mxCell>
                <mxCell id="hmMcFQCUcgatX-j8RUDL-3" value="" style="endArrow=open;endFill=1;endSize=12;html=1;rounded=0;entryX=1;entryY=0.5;entryDx=0;entryDy=0;exitX=0.5;exitY=0.5;exitDx=0;exitDy=0;exitPerimeter=0;" parent="1" source="7VLa77z8znclignIy_Kp-5" target="7VLa77z8znclignIy_Kp-19" edge="1">
                    <mxGeometry width="160" relative="1" as="geometry">
                        <mxPoint x="790" y="410" as="sourcePoint"/>
                        <mxPoint x="448" y="229" as="targetPoint"/>
                        <Array as="points">
                            <mxPoint x="-160" y="200"/>
                        </Array>
                    </mxGeometry>
                </mxCell>
                <mxCell id="7VLa77z8znclignIy_Kp-5" value="Usuário&lt;br&gt;Locatário" style="shape=umlActor;verticalLabelPosition=bottom;verticalAlign=top;html=1;outlineConnect=0;fillColor=#d5e8d4;strokeColor=#82b366;fontStyle=1;gradientColor=#97d077;" parent="1" vertex="1">
                    <mxGeometry x="-80" y="470" width="80" height="105" as="geometry"/>
                </mxCell>
                <mxCell id="7VLa77z8znclignIy_Kp-34" value="" style="endArrow=open;endFill=1;endSize=12;html=1;rounded=0;exitX=0.5;exitY=0.5;exitDx=0;exitDy=0;exitPerimeter=0;entryX=1;entryY=0.5;entryDx=0;entryDy=0;" parent="1" source="7VLa77z8znclignIy_Kp-5" target="7VLa77z8znclignIy_Kp-17" edge="1">
                    <mxGeometry width="160" relative="1" as="geometry">
                        <mxPoint x="802" y="510" as="sourcePoint"/>
                        <mxPoint x="-150" y="523" as="targetPoint"/>
                    </mxGeometry>
                </mxCell>
                <mxCell id="7VLa77z8znclignIy_Kp-38" value="" style="endArrow=open;endFill=1;endSize=12;html=1;rounded=0;entryX=1;entryY=0.5;entryDx=0;entryDy=0;exitX=0.5;exitY=0.5;exitDx=0;exitDy=0;exitPerimeter=0;" parent="1" source="7VLa77z8znclignIy_Kp-5" target="7VLa77z8znclignIy_Kp-13" edge="1">
                    <mxGeometry width="160" relative="1" as="geometry">
                        <mxPoint x="296" y="540" as="sourcePoint"/>
                        <mxPoint x="456" y="540" as="targetPoint"/>
                        <Array as="points">
                            <mxPoint x="-120" y="920"/>
                        </Array>
                    </mxGeometry>
                </mxCell>
                <mxCell id="7VLa77z8znclignIy_Kp-41" value="" style="endArrow=open;endFill=1;endSize=12;html=1;rounded=0;entryX=1;entryY=0.5;entryDx=0;entryDy=0;exitX=0.5;exitY=0.5;exitDx=0;exitDy=0;exitPerimeter=0;" parent="1" source="7VLa77z8znclignIy_Kp-5" target="7VLa77z8znclignIy_Kp-11" edge="1">
                    <mxGeometry width="160" relative="1" as="geometry">
                        <mxPoint x="800" y="510" as="sourcePoint"/>
                        <mxPoint x="456" y="240" as="targetPoint"/>
                        <Array as="points">
                            <mxPoint x="-120" y="120"/>
                        </Array>
                    </mxGeometry>
                </mxCell>
                <mxCell id="hmMcFQCUcgatX-j8RUDL-12" value="" style="endArrow=open;endFill=1;html=1;rounded=0;entryX=1;entryY=0.5;entryDx=0;entryDy=0;exitX=0.5;exitY=0.5;exitDx=0;exitDy=0;exitPerimeter=0;" parent="1" source="7VLa77z8znclignIy_Kp-5" target="7VLa77z8znclignIy_Kp-14" edge="1">
                    <mxGeometry width="160" relative="1" as="geometry">
                        <mxPoint x="576" y="630" as="sourcePoint"/>
                        <mxPoint x="969" y="1235" as="targetPoint"/>
                        <Array as="points">
                            <mxPoint x="-160" y="800"/>
                        </Array>
                    </mxGeometry>
                </mxCell>
                <mxCell id="hmMcFQCUcgatX-j8RUDL-6" value="&amp;lt;&amp;lt;Include&amp;gt;&amp;gt;" style="endArrow=open;endSize=12;dashed=1;html=1;rounded=0;exitX=1;exitY=0.5;exitDx=0;exitDy=0;" parent="1" source="7VLa77z8znclignIy_Kp-15" edge="1">
                    <mxGeometry x="0.0133" width="160" relative="1" as="geometry">
                        <mxPoint x="586" y="880" as="sourcePoint"/>
                        <mxPoint x="-50" y="530" as="targetPoint"/>
                        <mxPoint as="offset"/>
                    </mxGeometry>
                </mxCell>
            </root>
        </mxGraphModel>
    </diagram>
</mxfile>